<svg xmlns="http://www.w3.org/2000/svg" width="87" height="158" viewBox="0 0 87 158" fill="none">
    <path d="M22.7875 79L83.425 139.638C85.4875 141.7 86.4857 144.106 86.4197 146.856C86.3538 149.606 85.2867 152.013 83.2187 154.075C81.1507 156.138 78.7445 157.169 76 157.169C73.2555 157.169 70.8492 156.138 68.7812 154.075L5.25625 90.7563C3.60625 89.1063 2.36874 87.25 1.54374 85.1875C0.718745 83.125 0.306244 81.0625 0.306244 79C0.306244 76.9375 0.718745 74.875 1.54374 72.8125C2.36874 70.75 3.60625 68.8938 5.25625 67.2438L68.7812 3.71877C70.8437 1.65627 73.2858 0.658017 76.1072 0.724017C78.9287 0.790017 81.368 1.85702 83.425 3.92502C85.482 5.99302 86.5132 8.39927 86.5187 11.1438C86.5242 13.8883 85.493 16.2945 83.425 18.3625L22.7875 79Z" fill="black"/>
</svg>